<svg width="100" height="100" viewBox="0 0 100 100" fill="none" xmlns="http://www.w3.org/2000/svg">
<path d="M31.25 46.875H68.75C69.5788 46.875 70.3737 46.5458 70.9597 45.9597C71.5458 45.3737 71.875 44.5788 71.875 43.75V25C71.875 24.1712 71.5458 23.3763 70.9597 22.7903C70.3737 22.2042 69.5788 21.875 68.75 21.875H31.25C30.4212 21.875 29.6263 22.2042 29.0403 22.7903C28.4542 23.3763 28.125 24.1712 28.125 25V43.75C28.125 44.5788 28.4542 45.3737 29.0403 45.9597C29.6263 46.5458 30.4212 46.875 31.25 46.875ZM34.375 28.125H65.625V40.625H34.375V28.125ZM78.125 9.375H21.875C20.2174 9.375 18.6277 10.0335 17.4556 11.2056C16.2835 12.3777 15.625 13.9674 15.625 15.625V84.375C15.625 86.0326 16.2835 87.6223 17.4556 88.7944C18.6277 89.9665 20.2174 90.625 21.875 90.625H78.125C79.7826 90.625 81.3723 89.9665 82.5444 88.7944C83.7165 87.6223 84.375 86.0326 84.375 84.375V15.625C84.375 13.9674 83.7165 12.3777 82.5444 11.2056C81.3723 10.0335 79.7826 9.375 78.125 9.375ZM78.125 84.375H21.875V15.625H78.125V84.375ZM39.0625 57.8125C39.0625 58.7396 38.7876 59.6459 38.2725 60.4167C37.7574 61.1876 37.0254 61.7884 36.1688 62.1432C35.3123 62.498 34.3698 62.5908 33.4605 62.4099C32.5512 62.2291 31.716 61.7826 31.0604 61.1271C30.4049 60.4715 29.9584 59.6363 29.7776 58.727C29.5967 57.8177 29.6895 56.8752 30.0443 56.0187C30.3991 55.1621 30.9999 54.4301 31.7708 53.915C32.5416 53.3999 33.4479 53.125 34.375 53.125C35.6182 53.125 36.8105 53.6189 37.6896 54.4979C38.5686 55.377 39.0625 56.5693 39.0625 57.8125ZM54.6875 57.8125C54.6875 58.7396 54.4126 59.6459 53.8975 60.4167C53.3824 61.1876 52.6504 61.7884 51.7938 62.1432C50.9373 62.498 49.9948 62.5908 49.0855 62.4099C48.1762 62.2291 47.341 61.7826 46.6854 61.1271C46.0299 60.4715 45.5834 59.6363 45.4026 58.727C45.2217 57.8177 45.3145 56.8752 45.6693 56.0187C46.0241 55.1621 46.6249 54.4301 47.3958 53.915C48.1666 53.3999 49.0729 53.125 50 53.125C51.2432 53.125 52.4355 53.6189 53.3146 54.4979C54.1936 55.377 54.6875 56.5693 54.6875 57.8125ZM70.3125 57.8125C70.3125 58.7396 70.0376 59.6459 69.5225 60.4167C69.0074 61.1876 68.2754 61.7884 67.4188 62.1432C66.5623 62.498 65.6198 62.5908 64.7105 62.4099C63.8012 62.2291 62.966 61.7826 62.3104 61.1271C61.6549 60.4715 61.2084 59.6363 61.0276 58.727C60.8467 57.8177 60.9395 56.8752 61.2943 56.0187C61.6491 55.1621 62.2499 54.4301 63.0208 53.915C63.7916 53.3999 64.6979 53.125 65.625 53.125C66.8682 53.125 68.0605 53.6189 68.9396 54.4979C69.8186 55.377 70.3125 56.5693 70.3125 57.8125ZM39.0625 73.4375C39.0625 74.3646 38.7876 75.2709 38.2725 76.0417C37.7574 76.8126 37.0254 77.4134 36.1688 77.7682C35.3123 78.123 34.3698 78.2158 33.4605 78.0349C32.5512 77.8541 31.716 77.4076 31.0604 76.7521C30.4049 76.0965 29.9584 75.2613 29.7776 74.352C29.5967 73.4427 29.6895 72.5002 30.0443 71.6437C30.3991 70.7871 30.9999 70.0551 31.7708 69.54C32.5416 69.0249 33.4479 68.75 34.375 68.75C35.6182 68.75 36.8105 69.2439 37.6896 70.1229C38.5686 71.002 39.0625 72.1943 39.0625 73.4375ZM54.6875 73.4375C54.6875 74.3646 54.4126 75.2709 53.8975 76.0417C53.3824 76.8126 52.6504 77.4134 51.7938 77.7682C50.9373 78.123 49.9948 78.2158 49.0855 78.0349C48.1762 77.8541 47.341 77.4076 46.6854 76.7521C46.0299 76.0965 45.5834 75.2613 45.4026 74.352C45.2217 73.4427 45.3145 72.5002 45.6693 71.6437C46.0241 70.7871 46.6249 70.0551 47.3958 69.54C48.1666 69.0249 49.0729 68.75 50 68.75C51.2432 68.75 52.4355 69.2439 53.3146 70.1229C54.1936 71.002 54.6875 72.1943 54.6875 73.4375ZM70.3125 73.4375C70.3125 74.3646 70.0376 75.2709 69.5225 76.0417C69.0074 76.8126 68.2754 77.4134 67.4188 77.7682C66.5623 78.123 65.6198 78.2158 64.7105 78.0349C63.8012 77.8541 62.966 77.4076 62.3104 76.7521C61.6549 76.0965 61.2084 75.2613 61.0276 74.352C60.8467 73.4427 60.9395 72.5002 61.2943 71.6437C61.6491 70.7871 62.2499 70.0551 63.0208 69.54C63.7916 69.0249 64.6979 68.75 65.625 68.75C66.8682 68.75 68.0605 69.2439 68.9396 70.1229C69.8186 71.002 70.3125 72.1943 70.3125 73.4375Z" fill="#95A5A6"/>
</svg>
